<?xml version="1.0" encoding="utf-8"?>
<!-- Generator: Adobe Illustrator 26.2.1, SVG Export Plug-In . SVG Version: 6.00 Build 0)  -->
<svg version="1.1" id="Capa_1" xmlns="http://www.w3.org/2000/svg" xmlns:xlink="http://www.w3.org/1999/xlink" x="0px" y="0px"
	 viewBox="0 0 489 489" style="enable-background:new 0 0 489 489;" xml:space="preserve">
<style type="text/css">
	.st0{fill:#F9F9F9;stroke:#000000;stroke-width:1.5743;stroke-miterlimit:10;}
	.st1{fill:#FFFFFF;stroke:#000000;stroke-width:1.4903;stroke-miterlimit:10;}
	.st2{enable-background:new    ;}
</style>
<circle class="st0" cx="244.5" cy="244.5" r="224.6"/>
<path class="st1" d="M244.5,31.8c117.4,0,212.7,95.2,212.7,212.7S362,457.2,244.5,457.2S31.8,361.9,31.8,244.5S127,31.8,244.5,31.8z
	"/>
<g class="st2">
	<path d="M185.9,177.3c5.8-5.8,12.6-10,20.5-12.7c7.9-2.7,16-4,24.4-3.8c8.3,0.1,16.2,1.5,23.6,4.1c7.4,2.6,13.5,6.3,18.3,11.1
		c3.4,3.4,6,7.5,7.7,12.1s2.2,9.8,1.5,15.4c-0.7,5.7-3,11.8-6.8,18.5c-3.8,6.7-9.4,13.7-16.9,21.2c-3.7,3.7-8.2,7.8-13.5,12.3
		c6.1-1.6,11.3-2.8,15.7-3.6c4.3-0.9,8.8-1.4,13.4-1.8c9.8-0.6,18,0.1,24.6,2.1c6.6,2,11.9,4.9,15.7,8.7c2.5,2.5,4.3,5.1,5.5,7.8
		c1.2,2.7,2.1,5.7,2.6,9l2.6-10.6c2.2-8.8,4.2-16.1,6-21.9c4.3-14.2,10.5-25.3,18.4-33.2c6.5-6.3,12.7-9.3,18.7-8.9
		c2.1-4.3,4.4-7.8,7-10.4c4.9-4.4,9.7-6.4,14.5-6.1c4.8,0.3,9,2.4,12.8,6.1c2.4,2.4,4.4,5.3,6.1,9c2.3,5,3.7,10.7,4.1,17.1
		c0,1.6,0.1,3.2,0.4,4.6c0.3,1.4,0.9,2.7,2,3.8c1.4,1.4,3.6,2.4,6.7,2.9c1.2,0.2,2.4,0.6,3.5,0.9c1.1,0.4,2.2,1.1,3.1,2
		c1.5,1.5,2.4,3.1,2.6,4.7c0.2,1.7-0.2,3.2-1.3,4.6c-1.5,1.5-3.6,2.1-6.4,1.9c-2.8-0.2-5.6-1.7-8.5-4.6l-0.9-0.9
		c-0.2,1.8-0.4,3.2-0.6,4.1c-0.2,1-0.6,1.8-1,2.5c-0.4,0.7-1,1.5-1.7,2.4c-2,2-4.1,2.1-6.3,0.3c-0.9-0.9-1.5-2.2-1.8-4
		c-0.5-3.2,0.8-7.4,3.9-12.6c1.5-2.7,2.5-5.1,2.9-7.2c0.1-1.9-0.1-4.6-0.8-8c-0.6-3.4-1.7-6.9-3.3-10.2c-1.5-3.4-3.5-6.3-5.9-8.7
		c-3.4-3.4-7.2-5.3-11.3-5.7c-4.1-0.4-7.9,1.2-11.4,4.6c-1.9,1.9-3.5,4.3-5,7.3c3.4,1,6.4,2.8,9,5.4c4.1,4.2,6.9,9.4,8.3,15.6
		c1.8,7.3,2.2,13.4,1.4,18.4c-0.9,4.9-2.6,8.7-5.1,11.2c-2.1,2.1-4.5,3.2-7.2,3.3c-2.7,0.1-5.3-1-7.8-3.3c-5-5-7.5-13.3-7.4-24.9
		c0.1-8.6,1.4-16.3,3.8-22.9h-0.6c-4.3,0.2-9.2,3-14.6,8.4c-7.4,7.4-13.3,18.4-17.7,33.1c-1.9,6.5-3.7,13.2-5.4,20.2
		c-2.1,9-4.4,17.4-7,25.1c-2.8,7.8-6.5,14-11.2,18.8c-5,5-10.3,8.4-16,10c-5.6,1.6-10.9,2-15.9,1.1c-5-0.9-8.9-2.8-11.8-5.7
		c-1.7-1.7-2.9-3.8-3.6-6.2c-0.7-2.4-0.6-5,0.3-7.8c0.9-2.8,2.8-5.7,5.7-8.7c2.6-2.6,6.3-5.3,10.9-7.9c0.9-0.4,1.6-0.3,2.1,0.2
		c0.8,0.9,0.8,1.8-0.1,2.6l-0.4,0.3c-2.2,1.1-3.9,2.2-5.2,3.2c-1.3,1-2.6,2.1-4,3.4c-3.4,3.4-5.3,6.6-5.7,9.6
		c-0.4,3.1,0.3,5.5,2,7.3c1.5,1.5,3.6,2.3,6.3,2.6c2.8,0.2,6-0.4,9.7-1.9c2.6-1.1,4.7-2.5,6.5-4.3c4.9-4.9,6.9-11.2,6.2-18.9
		s-4.1-15-10.3-21.6c-2.8-2.8-6.4-5.2-10.7-7.3c-4.3-2.1-9.4-3.3-15.2-3.8c-5.8-0.5-12.3,0.2-19.5,2l-4.6,1.3
		c-0.7,0.2-1.3,0.1-1.8-0.4c-0.4-0.4-0.5-0.8-0.4-1.3c0.1-0.5,0.3-0.9,0.7-1.3c0.7-0.6,1.3-1.1,1.9-1.5c0.6-0.4,1.2-0.9,1.9-1.5
		c4.7-3.8,8.6-7.3,11.9-10.5c7-7,11.8-13.5,14.4-19.5c2.6-6,3.5-11.4,2.6-16.3c-0.9-4.9-3.1-9.1-6.7-12.6c-4.4-4.2-10-7.4-16.7-9.6
		c-6.7-2.2-13.8-3.4-21.3-3.5c-7.5-0.1-14.7,0.9-21.6,3.1c-6.9,2.2-12.7,5.6-17.3,10.2c-7.3,7.3-10.2,16.4-8.8,27.2
		c1,7.6,4,14,9.1,19c3,3,6.3,5,10.1,6.2c3.8,1.2,7.7,1.2,11.9,0c4.1-1.2,8.1-3.7,11.9-7.5c2.4-2.4,4.7-5.4,6.9-8.9l0.3-0.4
		c0.8-0.8,1.6-0.8,2.6,0c0.3,0.3,0.4,0.6,0.5,1c0,0.4-0.1,0.8-0.3,1.1c-2.4,3.9-5,7.2-7.6,9.8c-4.5,4.5-9.1,7.4-13.9,8.6
		c-4.8,1.2-9.3,1.2-13.6-0.2c-4.3-1.4-8.2-3.7-11.5-7.1c-5.5-5.6-8.8-12.6-9.9-20.9C169.9,204.5,174.5,188.7,185.9,177.3z
		 M370,207.1c-1.5,3.9-2.5,8.7-3.2,14.3c-0.6,5.7-0.5,11.3,0.4,17c0.9,5.7,3.1,10.5,6.6,14.5c1.1,1.1,2.2,1.7,3.2,1.9
		c1.1,0.2,2-0.2,3-1.1c2.3-2.3,3.4-7.4,3.3-15.3c0-2.7-0.4-5.8-1.1-9.5c-0.7-3.7-1.8-7.3-3.2-10.8c-1.4-3.5-3.2-6.3-5.2-8.4
		C372.7,208.7,371.4,207.8,370,207.1z M414.9,242.4l1,1.1c1.6,1.6,3.5,2.7,5.7,3.2c2.2,0.5,4.5,0.9,7,1.1c2.5,0.2,5,0.6,7.5,1.3
		c2.5,0.6,4.8,2,6.9,4.1c2.1,2.1,3.2,4.2,3.3,6.4c0.1,2.2-0.6,4.1-2.1,5.6c-1.6,1.6-3.9,2.6-6.9,2.9c-3.3,0.1-6.1-0.6-8.3-1.9
		c-2.2-1.4-4.4-3.1-6.5-5.2l-0.5-0.5c1.1,3.2,1.3,6.1,0.8,8.7c-0.5,2.7-1.4,4.7-2.8,6c-1.4,1.4-3.1,2.1-5,2.1
		c-1.9,0-3.6-0.8-5.1-2.2c-1.2-1.2-2-2.9-2.5-5.2s-0.3-5,0.4-8.2c0.9-3.1,2.1-6.1,3.5-9.1C412.9,249.2,414.1,245.8,414.9,242.4z"/>
</g>
<g class="st2">
	<path d="M87.1,181c3.1-3,6.5-5.3,10.2-6.6c3.7-1.4,8-1.9,13.1-1.7c6.4,0.4,13.4,2.3,21,5.8c7.6,3.5,14.7,8.5,21.3,15.1
		c4.8,4.8,8.7,10,11.7,15.8c3,5.8,4.8,11.6,5.1,17.7c0.4,6-1,11.9-4,17.6c-1.2,2.1-2.6,4-4.2,5.6c-2.8,2.8-6,4.6-9.7,5.6
		c-3.7,1-7.7,0.9-11.8-0.4c-4.1-1.3-8.3-4-12.4-8.1c-6.7-6.7-12-17.1-16-31.1c-0.1-0.7,0-1.2,0.4-1.6c0.3-0.3,0.7-0.5,1.2-0.5
		c0.5,0,0.9,0.1,1.2,0.5c0.2,0.2,0.4,0.5,0.4,0.8c2.2,7.6,4.6,13.7,7.1,18.3c2.5,4.6,5.3,8.5,8.4,11.6c3.5,3.5,7,5.8,10.5,6.9
		c3.5,1.1,6.8,1.3,10,0.6s6-2.4,8.4-4.8c2.2-2.2,4-5,5.1-8.2c1.2-3.2,1.9-6.4,2-9.7c0.2-5.9-1.1-11.8-4-17.7
		c-2.9-5.9-6.9-11.4-11.9-16.4c-6.5-6.5-13.7-11.5-21.8-15.1c-16.8-6.6-28.2-6.9-34.2-0.9c-2.8,2.8-4.2,6.4-4.4,11
		c-0.2,4.6,0.4,9.5,1.9,14.7s3.3,10.2,5.7,15c5.8,11.7,13.9,22.7,24.2,33c3.9,3.9,8.1,7.9,12.7,12c4.5,4.1,8.7,8,12.5,11.8
		c3.7,3.7,7.1,7.4,10.2,11.3c3.1,3.9,5.8,8.1,8.1,12.7c2.3,4.6,4.1,9.7,5.3,15.3c0.9,3.8,1.2,7.4,1,10.7l3.6-7c2-3.9,4-7.5,5.9-10.8
		c1.9-3.3,3.9-6,5.9-8c2.8-2.8,5.3-4.2,7.6-4.3c0.8-2.3,2-4.2,3.5-5.7c1.7-1.6,3.5-2.6,5.4-2.9c1.9-0.3,3.7,0.3,5.4,2
		c1,1.2,1.8,2.3,2.3,3.5c0.5,1.2,0.9,2.6,1.1,4.2c0.2,2,0.5,3.6,0.8,4.7c0.3,1.2,0.9,2.2,1.8,3.1c0.7,0.7,1.7,1.3,2.9,1.8
		c0.9,0.3,1.8,0.5,2.9,0.7c1,0.2,2.1,0.5,3.2,0.9c1.1,0.4,2.1,1,3,2c1.3,1.3,2,2.7,2.3,4.2c0.2,1.5-0.2,2.9-1.2,4.2
		c-1.3,1.3-3.2,1.9-5.8,1.7c-2.5-0.2-5.1-1.6-7.6-4.2l-0.8-0.8c-0.3,1.7-0.5,3-0.7,3.9c-0.2,0.9-0.5,1.6-0.8,2.2
		c-0.3,0.6-0.9,1.3-1.5,2.1c-1.7,1.7-3.6,1.8-5.6,0.2c-0.8-0.8-1.3-2-1.6-3.6c-0.4-2.8,0.5-6.1,2.8-10.1c1.1-1.9,2-4,2.7-6.3
		c0.5-1.8,0.7-3.8,0.5-5.9c-0.2-2.1-1.1-4.1-2.6-5.9c-1-1-2.1-1.4-3.1-1.3c-1.1,0.2-2.1,0.7-3,1.7c-1,1-1.9,2.3-2.6,3.9
		c1.2,0.5,2.3,1.2,3.2,2.1c2,2,3.1,4.6,3.5,7.8c0.3,3.2-0.3,5.7-2.1,7.5c-1.2,1.2-2.4,1.8-3.7,1.7s-2.4-0.5-3.5-1.6
		c-1.2-1.2-2-3.1-2.4-5.9c-0.4-2.7-0.2-5.7,0.5-9c-0.5,0.1-0.9,0.3-1.2,0.5c-0.3,0.2-0.6,0.5-1,0.8l-0.6,0.4c-1.5,1.5-3,4-4.6,7.4
		c-1,2.2-2,4.8-3.1,7.6c-1.6,4.1-3.4,8.4-5.4,12.7c-2,4.3-4.4,7.9-7.2,10.7c-2.5,2.5-5.3,4-8.5,4.7c-1.9,0.3-3.5,0.4-4.6,0.1
		c-1.2-0.2-2-0.6-2.4-1c-0.8-0.9-0.9-1.7-0.2-2.4c0.4-0.4,1-0.6,1.7-0.4c2.4,0.5,4.8-0.4,7.3-2.9c1.4-1.4,2.5-2.8,3.5-4.3
		c-0.5-0.5-0.7-1-0.6-1.7c0.4-2.4-1.5-6.2-5.6-11.6c-4.7-5.8-9.8-11.6-15.5-17.3c-6.6-6.6-13.6-13.2-20.7-19.6
		c-6.6-6-12.6-11.6-17.9-16.9c-3.9-3.9-7.5-7.9-10.9-12c-3.4-4.1-6.4-8.5-9.1-13.2c-2.7-4.7-4.9-9.9-6.7-15.5
		c-1.8-5.6-2.8-11.3-3-16.9c-0.2-5.6,0.6-11,2.2-15.9C80.9,188.8,83.5,184.6,87.1,181z M196.9,300.6c-0.7,3-0.9,5.6-0.6,7.8
		c0.3,2.2,0.8,3.7,1.5,4.4c0.4,0.4,0.8,0.5,1.2,0.5c0.4,0,0.8-0.2,1.2-0.6c1-1,1.3-2.7,1-5c-0.3-2.3-1.3-4.3-2.9-6
		C197.9,301.2,197.4,300.9,196.9,300.6z M214.4,320l0.8,0.9c1.5,1.5,3.2,2.5,5.2,3c2,0.5,4.1,0.8,6.4,1c2.3,0.2,4.5,0.6,6.8,1.2
		c2.3,0.6,4.4,1.8,6.2,3.7s2.9,3.8,3,5.9c0.1,2-0.5,3.8-1.9,5.1c-1.5,1.5-3.5,2.3-6.2,2.6c-3,0.1-5.5-0.4-7.6-1.8
		c-2.1-1.3-4.2-3.1-6.3-5.2c0.9,2.6,1.2,5.1,0.9,7.6c-0.3,2.5-1.2,4.4-2.6,5.8c-1.4,1.4-2.9,2-4.6,1.9c-1.7-0.1-3.2-0.7-4.5-2
		c-1.2-1.2-2-2.8-2.4-5c-0.4-2.1-0.2-4.5,0.5-7.2c0.8-2.7,1.8-5.3,3-8.1C212.7,326.1,213.8,323,214.4,320z"/>
</g>
</svg>
